HIERARCHY
ROOT Haolin_28_06:Solving:Hips
{
	OFFSET 0.000000 0.000000 0.000000
	CHANNELS 6 Xposition Yposition Zposition Xrotation Yrotation Zrotation
	JOINT Haolin_28_06:Solving:Spine
	{
		OFFSET 0.000000 -12.181966 2.015561
		CHANNELS 6 Xposition Yposition Zposition Xrotation Yrotation Zrotation
		JOINT Haolin_28_06:Solving:Spine1
		{
			OFFSET 0.000000 -8.890296 1.567602
			CHANNELS 6 Xposition Yposition Zposition Xrotation Yrotation Zrotation
			JOINT Haolin_28_06:Solving:Spine2
			{
				OFFSET 0.000000 -8.993092 0.786796
				CHANNELS 6 Xposition Yposition Zposition Xrotation Yrotation Zrotation
				JOINT Haolin_28_06:Solving:Spine3
				{
					OFFSET 0.000000 -9.027443 0.000000
					CHANNELS 6 Xposition Yposition Zposition Xrotation Yrotation Zrotation
					JOINT Haolin_28_06:Solving:Neck
					{
						OFFSET 0.000000 -11.606712 -1.160669
						CHANNELS 6 Xposition Yposition Zposition Xrotation Yrotation Zrotation
						JOINT Haolin_28_06:Solving:Neck1
						{
							OFFSET 0.000000 -7.471592 -0.653680
							CHANNELS 6 Xposition Yposition Zposition Xrotation Yrotation Zrotation
							JOINT Haolin_28_06:Solving:Head
							{
								OFFSET 0.000000 -7.386181 -1.302382
								CHANNELS 6 Xposition Yposition Zposition Xrotation Yrotation Zrotation
								JOINT Haolin_28_06:Solving:HeadEnd
								{
									OFFSET 0.000000 -9.728081 0.000002
									CHANNELS 6 Xposition Yposition Zposition Xrotation Yrotation Zrotation
									End Site
									{
										OFFSET 0.000000 -9.728081 0.000002
									}
								}
							}
						}
					}
					JOINT Haolin_28_06:Solving:RightShoulder
					{
						OFFSET 0.000000 -8.290508 -5.270916
						CHANNELS 6 Xposition Yposition Zposition Xrotation Yrotation Zrotation
						JOINT Haolin_28_06:Solving:RightArm
						{
							OFFSET -19.261074 -0.000008 0.000000
							CHANNELS 6 Xposition Yposition Zposition Xrotation Yrotation Zrotation
							JOINT Haolin_28_06:Solving:RightForeArm
							{
								OFFSET -30.691700 -0.000011 0.000000
								CHANNELS 6 Xposition Yposition Zposition Xrotation Yrotation Zrotation
								JOINT Haolin_28_06:Solving:RightHand
								{
									OFFSET -20.216934 -0.000008 0.000000
									CHANNELS 6 Xposition Yposition Zposition Xrotation Yrotation Zrotation
									JOINT Haolin_28_06:Solving:RightHandThumb1
									{
										OFFSET -4.948814 2.881329 -3.679893
										CHANNELS 6 Xposition Yposition Zposition Xrotation Yrotation Zrotation
										End Site
										{
											OFFSET -7.039886 -0.000004 -7.104978
										}
									}
									JOINT Haolin_28_06:Solving:RightHandMiddle1
									{
										OFFSET -13.196846 -0.000004 0.084595
										CHANNELS 6 Xposition Yposition Zposition Xrotation Yrotation Zrotation
										End Site
										{
											OFFSET -10.002037 -0.000004 0.000000
										}
									}
								}
							}
						}
					}
					JOINT Haolin_28_06:Solving:LeftShoulder
					{
						OFFSET 0.000000 -8.290508 -5.270916
						CHANNELS 6 Xposition Yposition Zposition Xrotation Yrotation Zrotation
						JOINT Haolin_28_06:Solving:LeftArm
						{
							OFFSET 19.261074 -0.000008 0.000000
							CHANNELS 6 Xposition Yposition Zposition Xrotation Yrotation Zrotation
							JOINT Haolin_28_06:Solving:LeftForeArm
							{
								OFFSET 30.691700 -0.000011 0.000000
								CHANNELS 6 Xposition Yposition Zposition Xrotation Yrotation Zrotation
								JOINT Haolin_28_06:Solving:LeftHand
								{
									OFFSET 20.216934 -0.000008 0.000000
									CHANNELS 6 Xposition Yposition Zposition Xrotation Yrotation Zrotation
									JOINT Haolin_28_06:Solving:LeftHandThumb1
									{
										OFFSET 4.948814 2.881329 -3.679893
										CHANNELS 6 Xposition Yposition Zposition Xrotation Yrotation Zrotation
										End Site
										{
											OFFSET 7.039886 -0.000004 -7.104978
										}
									}
									JOINT Haolin_28_06:Solving:LeftHandMiddle1
									{
										OFFSET 13.196846 -0.000004 0.084595
										CHANNELS 6 Xposition Yposition Zposition Xrotation Yrotation Zrotation
										End Site
										{
											OFFSET 10.002037 -0.000004 0.000000
										}
									}
								}
							}
						}
					}
				}
			}
		}
	}
	JOINT Haolin_28_06:Solving:RightUpLeg
	{
		OFFSET -10.083070 0.000000 0.000000
		CHANNELS 6 Xposition Yposition Zposition Xrotation Yrotation Zrotation
		JOINT Haolin_28_06:Solving:RightLeg
		{
			OFFSET 0.000000 47.042522 -0.000008
			CHANNELS 6 Xposition Yposition Zposition Xrotation Yrotation Zrotation
			JOINT Haolin_28_06:Solving:RightFoot
			{
				OFFSET 0.000000 38.766415 -0.000006
				CHANNELS 6 Xposition Yposition Zposition Xrotation Yrotation Zrotation
				JOINT Haolin_28_06:Solving:RightForeFoot
				{
					OFFSET 0.000000 3.531212 -0.000000
					CHANNELS 6 Xposition Yposition Zposition Xrotation Yrotation Zrotation
					JOINT Haolin_28_06:Solving:RightToeBase
					{
						OFFSET 0.000000 0.000000 -13.829352
						CHANNELS 6 Xposition Yposition Zposition Xrotation Yrotation Zrotation
						JOINT Haolin_28_06:Solving:RightToeBaseEnd
						{
							OFFSET 0.000000 0.000000 -4.034167
							CHANNELS 6 Xposition Yposition Zposition Xrotation Yrotation Zrotation
							End Site
							{
								OFFSET 0.000000 -4.034164 0.000004
							}
						}
					}
				}
			}
		}
	}
	JOINT Haolin_28_06:Solving:LeftUpLeg
	{
		OFFSET 10.083070 0.000000 0.000000
		CHANNELS 6 Xposition Yposition Zposition Xrotation Yrotation Zrotation
		JOINT Haolin_28_06:Solving:LeftLeg
		{
			OFFSET 0.000000 47.042522 -0.000008
			CHANNELS 6 Xposition Yposition Zposition Xrotation Yrotation Zrotation
			JOINT Haolin_28_06:Solving:LeftFoot
			{
				OFFSET 0.000000 38.766415 -0.000006
				CHANNELS 6 Xposition Yposition Zposition Xrotation Yrotation Zrotation
				JOINT Haolin_28_06:Solving:LeftForeFoot
				{
					OFFSET 0.000000 3.531212 -0.000000
					CHANNELS 6 Xposition Yposition Zposition Xrotation Yrotation Zrotation
					JOINT Haolin_28_06:Solving:LeftToeBase
					{
						OFFSET 0.000000 0.000000 -13.829352
						CHANNELS 6 Xposition Yposition Zposition Xrotation Yrotation Zrotation
						JOINT Haolin_28_06:Solving:LeftToeBaseEnd
						{
							OFFSET 0.000000 0.000000 -4.855067
							CHANNELS 6 Xposition Yposition Zposition Xrotation Yrotation Zrotation
							End Site
							{
								OFFSET 0.000000 -4.855064 0.000004
							}
						}
					}
				}
			}
		}
	}
}
MOTION
Frames: 6
Frame Time: 0.041667
27.646561 -183.271500 -82.544357 124.204039 -7.797316 -0.476338 0.000001 -12.181939 2.015525 25.454008 -0.628295 -1.395391 0.000010 -8.890303 1.567585 13.286682 -0.047368 -1.068590 0.000001 -8.993069 0.786783 15.209324 0.277145 2.898666 0.000003 -9.027437 0.000005 -3.033909 -0.513451 4.677880 0.000007 -11.606689 -1.160658 -16.060908 1.810151 0.661967 0.000004 -7.471590 -0.653698 -18.314182 1.406143 -5.064865 -0.000004 -7.386165 -1.302399 -8.461691 0.495367 -2.032217 0.000007 -9.728088 -0.000010 -0.000000 -0.000001 0.000000 0.000000 -8.290493 -5.270901 -0.000004 12.959372 19.758861 -19.261086 -0.000023 -0.000001 -81.812484 -44.114655 -89.063666 -30.691683 -0.000000 0.000006 -39.638661 -8.317825 -6.833782 -20.216930 -0.000021 -0.000007 3.021759 -16.707416 10.404851 -4.948804 2.881321 -3.679862 0.000002 0.000003 0.000004 -13.196860 -0.000026 0.084578 0.000003 0.000001 0.000002 0.000004 -8.290497 -5.270902 -0.000004 -8.690357 -19.902717 19.261074 0.000013 0.000008 -97.147331 52.644540 99.489307 30.691698 -0.000045 0.000004 -38.404545 3.172647 2.512114 20.216927 -0.000005 0.000000 1.763257 7.959715 -12.533444 4.948787 2.881306 -3.679878 -0.000005 -0.000002 0.000004 13.196832 -0.000013 0.084613 0.000003 -0.000001 0.000002 -10.083068 0.000013 -0.000047 -75.877897 9.085594 17.682996 -0.000003 47.042545 0.000015 54.700847 -0.000002 -0.000002 -0.000003 38.766415 0.000013 -7.484122 6.737152 1.741064 -0.000005 3.531219 -0.000002 0.000001 -0.000005 -0.000000 0.000005 -0.000004 -13.829343 -3.671761 -0.000002 0.000000 -0.000007 -0.000008 -4.034188 -0.000000 -0.000003 0.000000 10.083072 0.000038 -0.000029 -69.063977 -8.994364 -15.013820 0.000017 47.042515 0.000013 39.692452 -0.000005 -0.000007 -0.000023 38.766407 0.000008 0.962806 -8.300527 12.846339 -0.000001 3.531212 -0.000002 0.000000 0.000000 -0.000000 0.000001 0.000023 -13.829360 16.400485 0.000003 -0.000002 -0.000001 -0.000021 -4.855055 0.000006 0.000004 -0.000000 
28.257107 -183.359573 -82.512688 124.502573 -7.848228 -0.496710 -0.000002 -12.181963 2.015552 25.294653 -0.488230 -1.412340 -0.000002 -8.890310 1.567594 13.156191 -0.063436 -1.140163 -0.000000 -8.993073 0.786799 15.154026 0.322750 2.928131 -0.000012 -9.027417 -0.000004 -3.088559 -0.495547 4.625256 -0.000008 -11.606709 -1.160681 -16.080634 1.631585 0.837639 0.000007 -7.471587 -0.653702 -18.287338 1.023350 -5.008184 -0.000003 -7.386188 -1.302385 -8.394606 0.443335 -1.945576 -0.000001 -9.728088 -0.000016 0.000003 0.000000 -0.000000 -0.000009 -8.290482 -5.270941 -0.000004 12.894179 19.825037 -19.261099 -0.000023 -0.000021 -81.431298 -44.203366 -88.931829 -30.691696 -0.000017 -0.000004 -39.828431 -8.264896 -6.836481 -20.216925 0.000003 -0.000001 2.979161 -16.726577 10.249896 -4.948794 2.881338 -3.679872 0.000005 0.000002 -0.000003 -13.196832 0.000011 0.084619 0.000001 -0.000002 -0.000001 -0.000006 -8.290485 -5.270941 -0.000004 -8.695261 -19.874829 19.261080 -0.000025 -0.000003 -97.240454 52.325475 99.938099 30.691685 -0.000054 -0.000004 -38.496322 3.124477 2.482199 20.216923 -0.000006 0.000043 1.760423 7.968472 -12.500640 4.948812 2.881290 -3.679920 0.000004 0.000000 -0.000003 13.196868 -0.000037 0.084570 -0.000000 -0.000000 -0.000001 -10.083069 -0.000007 -0.000013 -76.294053 8.997712 18.227017 -0.000001 47.042522 0.000004 54.601137 -0.000002 -0.000003 -0.000000 38.766426 -0.000062 -7.224957 6.527329 1.642688 0.000000 3.531212 -0.000028 -0.000000 -0.000003 -0.000000 0.000009 0.000006 -13.829341 -3.409689 0.000000 0.000000 0.000008 0.000007 -4.034205 -0.000001 0.000002 0.000000 10.083057 0.000003 0.000018 -70.056233 -9.590005 -14.834105 0.000018 47.042515 -0.000006 41.116806 -0.000004 -0.000000 0.000006 38.766422 -0.000019 0.537413 -8.409148 12.748471 -0.000005 3.531219 0.000009 0.000000 0.000002 0.000000 -0.000010 0.000005 -13.829319 10.510344 -0.000001 0.000001 -0.000021 0.000023 -4.855067 0.000001 -0.000003 0.000000 
28.767523 -183.473083 -82.477951 124.827267 -7.752390 -0.253280 -0.000007 -12.181958 2.015538 25.203371 -0.281822 -1.424740 0.000002 -8.890298 1.567588 13.001006 -0.085478 -1.142660 0.000002 -8.993050 0.786796 14.931531 0.140835 2.918397 0.000002 -9.027395 -0.000022 -3.061923 -0.531460 4.557568 -0.000000 -11.606735 -1.160661 -16.046923 1.395202 0.793738 -0.000002 -7.471615 -0.653681 -18.380813 0.543513 -4.833163 0.000008 -7.386191 -1.302389 -8.326339 0.366752 -1.781047 -0.000008 -9.728073 -0.000034 -0.000001 -0.000000 0.000001 0.000007 -8.290524 -5.270910 -0.000002 12.855358 19.866307 -19.261072 0.000003 -0.000016 -81.237847 -44.243616 -88.973548 -30.691700 -0.000013 -0.000010 -39.642380 -8.209448 -6.747061 -20.216942 -0.000037 0.000012 2.932993 -16.669657 10.126840 -4.948798 2.881320 -3.679861 -0.000001 -0.000009 0.000000 -13.196832 -0.000008 0.084625 -0.000000 0.000003 -0.000002 0.000010 -8.290524 -5.270902 -0.000002 -8.691078 -19.972388 19.261066 -0.000001 -0.000017 -97.146750 52.158740 100.229078 30.691689 -0.000033 -0.000004 -38.842722 3.104413 2.497010 20.216904 0.000007 0.000006 1.750251 7.994906 -12.391071 4.948819 2.881338 -3.679870 -0.000008 -0.000002 -0.000005 13.196869 0.000006 0.084595 -0.000008 0.000000 -0.000000 -10.083076 0.000000 -0.000015 -76.605797 8.913133 18.347278 -0.000003 47.042515 -0.000000 54.461442 0.000001 -0.000003 -0.000002 38.766415 0.000045 -6.955991 6.491429 1.511898 -0.000013 3.531219 0.000002 0.000001 -0.000002 -0.000000 0.000004 0.000000 -13.829362 -3.321655 0.000003 -0.000001 -0.000006 -0.000015 -4.034190 -0.000000 -0.000001 0.000000 10.083071 0.000014 -0.000025 -71.731377 -9.863550 -15.034093 -0.000035 47.042511 0.000021 44.021177 0.000001 0.000001 0.000002 38.766415 -0.000003 -0.014070 -6.571445 12.500281 -0.000013 3.531212 -0.000009 0.000000 -0.000003 0.000000 0.000026 0.000001 -13.829352 -2.410323 -0.000000 -0.000000 0.000001 -0.000008 -4.855094 -0.000000 0.000000 0.000000 
29.277710 -183.580429 -82.366966 125.123424 -7.604545 0.044776 -0.000001 -12.181929 2.015582 25.034003 -0.155305 -1.475741 -0.000002 -8.890296 1.567630 12.906281 -0.098743 -1.170195 -0.000004 -8.993095 0.786803 14.783289 0.057145 2.892052 -0.000001 -9.027414 -0.000004 -3.008148 -0.571063 4.518030 -0.000002 -11.606728 -1.160682 -16.178273 1.227487 0.710100 0.000003 -7.471577 -0.653671 -18.390117 -0.138958 -4.645311 -0.000001 -7.386171 -1.302374 -8.276091 0.280048 -1.618681 -0.000002 -9.728088 -0.000017 -0.000004 -0.000001 0.000000 -0.000005 -8.290520 -5.270934 -0.000010 12.832576 20.012126 -19.261095 -0.000035 0.000006 -81.269750 -44.138820 -89.177941 -30.691706 -0.000009 0.000007 -39.249757 -8.132864 -6.593211 -20.216930 -0.000018 -0.000003 2.929405 -16.669403 10.114840 -4.948789 2.881344 -3.679873 -0.000004 -0.000000 0.000003 -13.196839 -0.000007 0.084584 0.000001 0.000000 -0.000001 -0.000004 -8.290535 -5.270936 -0.000007 -8.696911 -20.088502 19.261070 0.000017 0.000030 -96.947739 51.753262 100.323164 30.691689 -0.000012 0.000004 -38.748917 3.040085 2.437208 20.216927 -0.000010 0.000015 1.704535 7.890810 -12.230442 4.948802 2.881322 -3.679872 -0.000010 0.000009 -0.000006 13.196831 -0.000013 0.084601 0.000001 0.000004 0.000000 -10.083073 0.000020 -0.000003 -76.815545 8.815204 18.339802 -0.000001 47.042542 0.000015 54.240479 -0.000001 -0.000004 -0.000007 38.766411 -0.000029 -6.784297 6.547154 1.295026 -0.000002 3.531242 -0.000005 -0.000001 -0.000002 0.000001 0.000010 0.000011 -13.829351 -3.194494 0.000003 0.000001 -0.000001 -0.000000 -4.034188 -0.000000 -0.000002 -0.000000 10.083066 0.000048 0.000007 -73.273819 -9.634903 -15.240835 -0.000012 47.042515 0.000017 46.413161 0.000005 -0.000003 0.000002 38.766426 -0.000022 0.097012 -4.705331 11.061060 0.000007 3.531212 0.000020 -0.000001 -0.000000 0.000000 0.000006 0.000004 -13.829375 -6.394821 -0.000004 0.000000 -0.000011 0.000008 -4.855073 0.000000 -0.000000 -0.000000 
29.767664 -183.664047 -82.255157 125.357016 -7.442130 0.201034 -0.000006 -12.181982 2.015576 24.879012 -0.148417 -1.386733 -0.000003 -8.890291 1.567618 12.853777 -0.122188 -1.121113 -0.000005 -8.993116 0.786792 14.587670 0.000448 2.867523 -0.000005 -9.027449 -0.000010 -2.932968 -0.579678 4.434231 -0.000000 -11.606718 -1.160677 -16.039272 0.879005 0.780493 -0.000006 -7.471611 -0.653676 -18.692607 -0.870311 -4.755771 -0.000003 -7.386214 -1.302398 -8.382655 0.203910 -1.535593 -0.000006 -9.728119 -0.000015 0.000007 0.000000 -0.000000 0.000001 -8.290497 -5.270919 -0.000004 12.652420 20.020254 -19.261049 -0.000001 -0.000020 -80.703610 -43.936271 -88.921242 -30.691702 -0.000005 -0.000008 -39.290356 -8.274932 -6.716172 -20.216928 -0.000020 0.000007 2.874145 -16.659533 9.933168 -4.948789 2.881328 -3.679897 -0.000007 0.000002 0.000004 -13.196838 0.000001 0.084563 -0.000008 0.000000 -0.000000 -0.000005 -8.290497 -5.270918 -0.000002 -8.757785 -20.249954 19.261059 -0.000005 -0.000005 -97.083674 51.489709 100.728666 30.691696 -0.000034 -0.000013 -38.306474 2.921931 2.305886 20.216911 -0.000020 -0.000023 1.666348 7.741614 -12.186609 4.948836 2.881333 -3.679884 -0.000001 0.000010 -0.000000 13.196851 0.000011 0.084606 -0.000004 0.000001 -0.000003 -10.083079 -0.000009 0.000006 -76.967913 8.519803 18.322561 -0.000001 47.042557 0.000015 54.088613 0.000001 -0.000004 0.000002 38.766426 0.000004 -6.544360 6.831228 0.947066 0.000007 3.531212 0.000018 0.000001 0.000002 0.000000 -0.000001 0.000008 -13.829299 -2.899936 0.000004 -0.000001 0.000010 -0.000000 -4.034207 -0.000001 0.000004 -0.000001 10.083065 -0.000006 0.000060 -74.233563 -9.530259 -15.338018 0.000015 47.042534 -0.000002 47.612385 -0.000003 -0.000004 -0.000008 38.766418 0.000001 0.284267 -3.984057 10.547696 -0.000011 3.531212 -0.000026 -0.000001 0.000003 -0.000000 -0.000002 0.000014 -13.829365 -2.942101 -0.000002 0.000000 -0.000007 -0.000000 -4.855063 -0.000000 0.000003 0.000000 
30.244913 -183.704697 -82.187393 125.374078 -7.197555 0.283710 0.000000 -12.181990 2.015591 24.816452 -0.218984 -1.285910 0.000001 -8.890233 1.567557 12.881936 -0.136021 -1.071932 -0.000001 -8.993092 0.786814 14.497498 0.007072 2.960455 0.000007 -9.027428 0.000005 -2.867469 -0.545937 4.376842 0.000004 -11.606734 -1.160676 -15.880350 0.537144 0.732250 -0.000010 -7.471615 -0.653708 -19.050709 -1.688524 -4.835725 0.000015 -7.386165 -1.302384 -8.538971 0.119199 -1.428351 -0.000011 -9.728104 -0.000038 -0.000001 -0.000001 0.000000 0.000004 -8.290535 -5.270941 -0.000007 12.523832 19.944881 -19.261082 -0.000017 -0.000003 -80.414863 -43.833832 -88.870405 -30.691690 -0.000022 0.000009 -39.366560 -8.250758 -6.714894 -20.216909 -0.000020 0.000011 2.858664 -16.695643 9.860271 -4.948805 2.881343 -3.679854 0.000002 0.000010 0.000004 -13.196826 0.000007 0.084613 0.000005 0.000001 -0.000003 0.000007 -8.290535 -5.270941 -0.000006 -8.731379 -20.376510 19.261084 -0.000011 0.000018 -97.339355 51.729882 101.059814 30.691689 -0.000044 0.000005 -38.090882 2.696595 2.111963 20.216919 -0.000023 -0.000001 1.647707 7.630824 -12.223057 4.948796 2.881319 -3.679874 -0.000000 -0.000003 -0.000004 13.196833 -0.000014 0.084562 0.000002 -0.000002 -0.000006 -10.083066 -0.000027 0.000016 -77.007412 8.329624 18.351829 0.000003 47.042530 -0.000016 54.105887 0.000002 -0.000002 0.000002 38.766415 -0.000024 -6.361721 6.746666 0.750796 0.000008 3.531197 -0.000046 0.000000 0.000002 0.000000 0.000005 0.000005 -13.829345 -2.740448 -0.000001 -0.000001 0.000004 0.000000 -4.034171 0.000001 0.000000 0.000001 10.083071 -0.000002 0.000029 -74.659985 -9.712903 -15.581514 -0.000004 47.042496 0.000022 48.220620 -0.000006 -0.000003 0.000005 38.766411 0.000020 0.478912 -4.226235 10.674226 -0.000027 3.531212 -0.000006 -0.000000 0.000004 -0.000000 0.000026 0.000008 -13.829334 -0.103803 0.000001 0.000000 0.000029 0.000000 -4.855093 0.000002 0.000001 0.000000 
